<svg id="Capa_1" enable-background="new 0 0 512 512" height="512" viewBox="0 0 512 512" width="512" xmlns="http://www.w3.org/2000/svg"><g><path d="m477 252h-25v-15c0-30.376-24.624-55-55-55h-6v-15c0-24.813-20.187-45-45-45h-5v-34.58c17.459-6.192 30-22.865 30-42.42 0-24.813-20.187-45-45-45s-45 20.187-45 45c0 19.555 12.541 36.228 30 42.42v34.58h-110v-34.58c17.459-6.192 30-22.865 30-42.42 0-24.813-20.187-45-45-45s-45 20.187-45 45c0 19.555 12.541 36.228 30 42.42v34.58h-5c-24.813 0-45 20.187-45 45v15h-6c-30.376 0-55 24.624-55 55v15h-25c-19.299 0-35 15.701-35 35v80c0 19.299 15.701 35 35 35h25v15c0 30.376 24.624 55 55 55h177.017.039l66.503 38.002c10 5.714 22.442-1.506 22.442-13.024v-24.978h16c30.376 0 55-24.624 55-55v-15h25c19.299 0 35-15.701 35-35v-80c-.001-19.299-15.702-35-35.001-35zm-151-222c8.271 0 15 6.729 15 15s-6.729 15-15 15-15-6.729-15-15 6.729-15 15-15zm-140 0c8.271 0 15 6.729 15 15s-6.729 15-15 15-15-6.729-15-15 6.729-15 15-15zm-35 137c0-8.271 6.729-15 15-15h180c8.271 0 15 6.729 15 15v15h-210zm-116 205c-2.757 0-5-2.243-5-5v-80c0-2.757 2.243-5 5-5h25v90zm387 45c0 13.807-11.193 25-25 25h-31c-8.284 0-15 6.716-15 15v14.152l-47.558-27.176c-2.266-1.295-4.832-1.976-7.442-1.976h-181c-13.807 0-25-11.193-25-25v-180c0-13.807 11.193-25 25-25h282c13.807 0 25 11.193 25 25zm60-50c0 2.757-2.243 5-5 5h-25v-90h25c2.757 0 5 2.243 5 5z"/><path d="m326 242c-24.813 0-45 20.187-45 45 0 8.284 6.716 15 15 15s15-6.716 15-15c0-8.271 6.729-15 15-15s15 6.729 15 15c0 8.284 6.716 15 15 15s15-6.716 15-15c0-24.814-20.187-45-45-45z"/><path d="m201 287c0 8.284 6.716 15 15 15s15-6.716 15-15c0-24.813-20.187-45-45-45s-45 20.187-45 45c0 8.284 6.716 15 15 15s15-6.716 15-15c0-8.271 6.729-15 15-15s15 6.728 15 15z"/><path d="m293.639 366.393c-20.754 20.754-54.523 20.754-75.277 0-5.857-5.857-15.355-5.857-21.213 0s-5.858 15.355 0 21.213c16.225 16.226 37.539 24.338 58.852 24.338s42.626-8.112 58.852-24.338c5.858-5.857 5.858-15.355 0-21.213-5.859-5.857-15.357-5.857-21.214 0z"/></g></svg>