<svg id="Layer" height="512" viewBox="0 0 24 24" width="512" xmlns="http://www.w3.org/2000/svg"><path id="message-text-times" d="m21.75 6v4a.75.75 0 0 1 -1.5 0v-4c0-1.577-.673-2.25-2.25-2.25h-12c-1.577 0-2.25.673-2.25 2.25v13.189l1.72-1.719a.747.747 0 0 1 .53-.22h7a.75.75 0 0 1 0 1.5h-6.689l-2.781 2.78a.746.746 0 0 1 -.53.22.75.75 0 0 1 -.75-.75v-15a3.383 3.383 0 0 1 3.75-3.75h12a3.383 3.383 0 0 1 3.75 3.75zm-.22 7.47a.749.749 0 0 0 -1.06 0l-1.47 1.469-1.47-1.469a.75.75 0 0 0 -1.06 1.06l1.469 1.47-1.469 1.47a.75.75 0 1 0 1.06 1.06l1.47-1.469 1.47 1.469a.75.75 0 0 0 1.06-1.06l-1.469-1.47 1.469-1.47a.749.749 0 0 0 0-1.06zm-4.78-4.97a.75.75 0 0 0 -.75-.75h-8a.75.75 0 0 0 0 1.5h8a.75.75 0 0 0 .75-.75zm-8.75 3.25a.75.75 0 0 0 0 1.5h5a.75.75 0 0 0 0-1.5z" fill="rgb(0,0,0)"/></svg>