<svg clip-rule="evenodd" fill-rule="evenodd" stroke-linejoin="round" stroke-miterlimit="2" viewBox="0 0 24 24" xmlns="http://www.w3.org/2000/svg"><g id="Icon"><path d="m1.305 3.542c-.175-.699.074-1.435.636-1.886s1.335-.533 1.979-.211l17.81 8.905c.625.312 1.02.951 1.02 1.65s-.395 1.338-1.02 1.65l-17.81 8.905c-.644.322-1.417.24-1.979-.211s-.811-1.187-.636-1.886l2.115-8.458-2.115-8.458zm1.455-.363 2.16 8.639c.03.12.03.244 0 .364l-2.16 8.639c-.032.131.014.269.119.353s.25.1.37.04l17.81-8.906c.117-.058.191-.177.191-.308s-.074-.25-.191-.308l-17.81-8.906c-.12-.06-.265-.044-.37.04s-.151.222-.119.353z"/><path d="m4.369 12.75c-.414 0-.75-.336-.75-.75s.336-.75.75-.75h8.5c.414 0 .75.336.75.75s-.336.75-.75.75z"/></g></svg>